<svg width="39" height="40" viewBox="0 0 39 40" fill="none" xmlns="http://www.w3.org/2000/svg">
<path d="M26.1593 23.2812C27.2783 21.4375 27.9348 19.25 27.9348 16.8984C27.9348 10.3281 22.8544 5 16.5878 5C10.3138 5 5.2334 10.3281 5.2334 16.8984C5.2334 23.4688 10.3138 28.7969 16.5804 28.7969C18.8557 28.7969 20.9744 28.0938 22.75 26.8906L23.2647 26.5156L31.3665 35L33.8806 32.3203L25.7863 23.8359L26.1593 23.2812ZM22.9439 10.25C24.6374 12.0234 25.5699 14.3828 25.5699 16.8906C25.5699 19.3984 24.6374 21.7578 22.9439 23.5312C21.2505 25.3047 18.9975 26.2812 16.6028 26.2812C14.208 26.2812 11.955 25.3047 10.2616 23.5312C8.56811 21.7578 7.63559 19.3984 7.63559 16.8906C7.63559 14.3828 8.56811 12.0234 10.2616 10.25C11.955 8.47656 14.208 7.5 16.6028 7.5C18.9975 7.5 21.2505 8.47656 22.9439 10.25Z" fill="black"/>
</svg>
