<svg width="26" height="26" viewBox="0 0 26 26" fill="none" xmlns="http://www.w3.org/2000/svg">
    <path
        d="M11.6667 4.84291V22.6536C11.6667 23.9495 10.6161 25 9.32024 25C8.32861 25 7.44403 24.3766 7.11051 23.4428L4.24863 15.2438M21 14.3333C23.2091 14.3333 25 12.5425 25 10.3333C25 8.12419 23.2091 6.33333 21 6.33333M4.24863 15.2438C2.33906 14.4321 1 12.5391 1 10.3333C1 7.38781 3.38781 5 6.33332 5H8.77611C14.2436 5 18.9425 3.35454 21 1L21 19.6667C18.9425 17.3121 14.2436 15.6667 8.77611 15.6667L6.3333 15.6667C5.59357 15.6667 4.88902 15.5161 4.24863 15.2438Z"
        stroke="black" stroke-width="2" stroke-linecap="round" stroke-linejoin="round" />
</svg>
    