<svg width="35" height="30" viewBox="0 0 35 30" fill="none" xmlns="http://www.w3.org/2000/svg">
    <path
        d="M33.1628 15.4168C32.8166 16.2386 31.9589 16.7696 30.9768 16.7696H30.1778V27.0176C30.1778 27.5319 29.7092 27.9493 29.1319 27.9493H22.8565V21.4278C22.8565 18.8593 20.5105 16.7696 17.6269 16.7696C14.7434 16.7696 12.3974 18.8593 12.3974 21.4278V27.9493H6.12203C5.54469 27.9493 5.07613 27.5319 5.07613 27.0176V16.7696H4.27601C3.29391 16.7696 2.43627 16.2395 2.09008 15.4178C1.74388 14.5961 1.99804 13.6924 2.73854 13.1166L14.9536 2.81268C16.4534 1.54844 18.8015 1.54844 20.3003 2.81268L32.5446 13.1408C33.2538 13.6914 33.509 14.5951 33.1628 15.4168Z"
        fill="black" />
</svg>
    