<svg width="37" height="31" viewBox="0 0 37 31" fill="none" xmlns="http://www.w3.org/2000/svg">
    <path
        d="M19.343 22.3188C18.7554 21.8222 18.0924 21.4464 17.354 21.2048L15.802 15.7823L34.2303 11.1383L36.2042 18.0775L19.343 22.3188ZM13.4816 7.62178L25.762 4.53474L27.736 11.4739L15.4555 14.5609L13.4816 7.62178ZM14.024 21.0974C13.6774 21.1779 13.361 21.2987 13.0596 21.4464L7.63514 2.44091H5.60095C5.40507 2.84357 4.96809 3.12543 4.45578 3.12543H1.92434C1.23121 3.12543 0.643555 2.58856 0.643555 1.93088C0.643555 1.27321 1.21614 0.736328 1.92434 0.736328H4.47085C4.89275 0.736328 5.25438 0.951079 5.48041 1.24636H9.38304V1.30005L9.44331 1.28663L15.0486 20.9364C14.7021 20.9632 14.3706 21.0169 14.024 21.0974ZM14.3555 22.2517C16.7212 21.6611 19.1773 22.9765 19.8101 25.218C20.443 27.4594 19.0417 29.7546 16.6609 30.3451C14.2952 30.9491 11.8391 29.6203 11.2063 27.3923C10.5734 25.1508 11.9747 22.8557 14.3555 22.2517ZM13.6774 26.8286C13.9487 27.795 14.9884 28.3587 16.013 28.1037C17.0226 27.8487 17.6403 26.8554 17.3691 25.9025C17.0979 24.9361 16.0582 24.3724 15.0336 24.6408C14.0089 24.8958 13.4062 25.8756 13.6774 26.8286ZM36.0385 22.1309L21.1964 25.8622C21.1663 25.5401 21.1211 25.218 21.0307 24.8958C20.9403 24.5737 20.8046 24.2784 20.654 23.9831L35.4207 20.2653L36.0385 22.1309Z"
        fill="black" />
</svg>
    