<svg width="33" height="31" viewBox="0 0 33 31" fill="none" xmlns="http://www.w3.org/2000/svg">
    <g clip-path="url(#clip0_209_490)">
        <g clip-path="url(#clip1_209_490)">
            <path
                d="M22.7703 32.6484V29.9818C22.7703 28.5673 22.2084 27.2107 21.2082 26.2105C20.2081 25.2103 18.8515 24.6484 17.437 24.6484H6.77035C5.35586 24.6484 3.9993 25.2103 2.99911 26.2105C1.99891 27.2107 1.43701 28.5673 1.43701 29.9818V32.6484"
                stroke="black" stroke-width="2" stroke-linecap="round" stroke-linejoin="round" />
            <path
                d="M12.1034 19.3151C15.0489 19.3151 17.4367 16.9273 17.4367 13.9818C17.4367 11.0363 15.0489 8.64844 12.1034 8.64844C9.15783 8.64844 6.77002 11.0363 6.77002 13.9818C6.77002 16.9273 9.15783 19.3151 12.1034 19.3151Z"
                stroke="black" stroke-width="2" stroke-linecap="round" stroke-linejoin="round" />
            <path
                d="M30.77 32.6484V29.9818C30.7691 28.8001 30.3758 27.6521 29.6518 26.7182C28.9279 25.7843 27.9142 25.1172 26.77 24.8218"
                stroke="black" stroke-width="2" stroke-linecap="round" stroke-linejoin="round" />
            <path
                d="M21.437 8.82178C22.5842 9.11551 23.6011 9.78271 24.3272 10.7182C25.0533 11.6537 25.4475 12.8042 25.4475 13.9884C25.4475 15.1727 25.0533 16.3232 24.3272 17.2587C23.6011 18.1942 22.5842 18.8614 21.437 19.1551"
                stroke="black" stroke-width="2" stroke-linecap="round" stroke-linejoin="round" />
        </g>
    </g>
    <defs>
        <clipPath id="clip0_209_490">
            <rect width="32.7344" height="29.8125" fill="white"
                transform="translate(0.103516 0.648438)" />
        </clipPath>
        <clipPath id="clip1_209_490">
            <rect width="32" height="32" fill="white" transform="translate(0.103516 4.64844)" />
        </clipPath>
    </defs>
</svg>
    