<?xml version="1.0" encoding="UTF-8"?>
<svg xmlns="http://www.w3.org/2000/svg" xmlns:xlink="http://www.w3.org/1999/xlink" width="240px" height="120px" viewBox="0 0 240 120" version="1.1">
<g id="surface1">
<path style=" stroke:none;fill-rule:nonzero;fill:rgb(93.333333%,93.333333%,100%);fill-opacity:1;" d="M 76.089844 33.472656 C 75.910156 33.652344 75.910156 33.925781 76.089844 34.105469 C 76.269531 34.285156 76.539062 34.285156 76.71875 34.105469 C 77.253906 33.574219 77.984375 33.292969 78.734375 33.328125 C 79.488281 33.363281 80.1875 33.710938 80.675781 34.285156 C 81.203125 34.824219 81.484375 35.554688 81.449219 36.308594 C 81.414062 37.0625 81.070312 37.769531 80.496094 38.253906 C 80.316406 38.4375 80.316406 38.707031 80.496094 38.886719 C 80.675781 39.066406 80.945312 39.066406 81.125 38.886719 C 81.851562 38.230469 82.289062 37.308594 82.339844 36.328125 C 82.390625 35.34375 82.050781 34.382812 81.394531 33.652344 C 79.863281 32.210938 77.527344 32.121094 76.089844 33.472656 Z M 92.628906 49.894531 C 91.386719 49.894531 90.382812 50.90625 90.382812 52.148438 C 90.382812 53.414062 91.371094 54.40625 92.628906 54.40625 C 93.886719 54.40625 94.875 53.414062 94.875 52.148438 C 94.875 50.886719 93.886719 49.894531 92.628906 49.894531 Z M 92.628906 53.59375 C 91.820312 53.59375 91.28125 52.960938 91.28125 52.242188 C 91.28125 51.429688 91.910156 50.886719 92.628906 50.886719 C 93.4375 50.886719 93.976562 51.519531 93.976562 52.242188 C 93.976562 52.960938 93.347656 53.59375 92.628906 53.59375 Z M 21.527344 17.234375 C 20.269531 17.234375 19.28125 18.226562 19.28125 19.488281 C 19.28125 20.75 20.269531 21.746094 21.527344 21.746094 C 22.785156 21.746094 23.773438 20.75 23.773438 19.488281 C 23.773438 18.226562 22.785156 17.234375 21.527344 17.234375 Z M 21.527344 20.933594 C 20.71875 20.933594 20.179688 20.300781 20.179688 19.578125 C 20.179688 18.765625 20.808594 18.226562 21.527344 18.226562 C 22.335938 18.226562 22.875 18.855469 22.875 19.578125 C 22.875 20.300781 22.246094 20.933594 21.527344 20.933594 Z M 34.472656 72.542969 C 34.472656 71.730469 35.101562 71.1875 35.820312 71.1875 C 36.628906 71.1875 37.167969 71.820312 37.167969 72.542969 C 37.167969 72.8125 37.347656 72.992188 37.617188 72.992188 C 37.886719 72.992188 38.066406 72.8125 38.066406 72.542969 C 38.066406 71.277344 37.078125 70.285156 35.820312 70.285156 C 34.578125 70.285156 33.574219 71.296875 33.574219 72.542969 C 33.574219 72.8125 33.753906 72.992188 34.023438 72.992188 C 34.292969 72.992188 34.472656 72.8125 34.472656 72.542969 Z M 85.078125 80.75 C 83.835938 80.75 82.832031 81.761719 82.832031 83.007812 C 82.832031 84.269531 83.820312 85.261719 85.078125 85.261719 C 86.335938 85.261719 87.324219 84.269531 87.324219 83.007812 C 87.414062 81.746094 86.335938 80.75 85.078125 80.75 Z M 85.078125 84.449219 C 84.269531 84.449219 83.730469 83.820312 83.730469 83.097656 C 83.730469 82.285156 84.359375 81.746094 85.078125 81.746094 C 85.886719 81.746094 86.425781 82.375 86.425781 83.097656 C 86.515625 83.820312 85.886719 84.449219 85.078125 84.449219 Z M 10.742188 79.757812 C 9.253906 79.757812 8.046875 80.972656 8.046875 82.464844 C 8.046875 83.960938 9.253906 85.171875 10.742188 85.171875 C 12.230469 85.171875 13.4375 83.960938 13.4375 82.464844 C 13.4375 80.972656 12.230469 79.757812 10.742188 79.757812 Z M 10.742188 84.179688 C 9.75 84.179688 8.945312 83.371094 8.945312 82.375 C 8.945312 81.382812 9.753906 80.570312 10.742188 80.570312 C 11.734375 80.570312 12.539062 81.378906 12.539062 82.375 C 12.539062 83.371094 11.734375 84.179688 10.742188 84.179688 Z M 105.84375 23.640625 C 105.84375 22.144531 104.636719 20.933594 103.144531 20.933594 C 101.65625 20.933594 100.449219 22.144531 100.449219 23.640625 C 100.449219 25.132812 101.65625 26.347656 103.144531 26.347656 C 104.636719 26.347656 105.84375 25.132812 105.84375 23.640625 Z M 103.144531 25.445312 C 102.152344 25.445312 101.347656 24.636719 101.347656 23.640625 C 101.347656 22.648438 102.15625 21.835938 103.144531 21.835938 C 104.136719 21.835938 104.945312 22.648438 104.945312 23.640625 C 104.945312 24.636719 104.140625 25.445312 103.144531 25.445312 Z M 77.4375 65.324219 L 75.371094 66.585938 L 71.144531 59.1875 C 70.785156 58.554688 70.066406 58.285156 69.257812 58.375 L 62.605469 58.738281 C 61.527344 58.828125 60.359375 59.457031 59.820312 60.359375 L 56.136719 65.953125 C 55.683594 66.585938 55.59375 67.398438 55.953125 68.03125 L 60.179688 75.339844 L 58.113281 76.601562 C 57.933594 76.691406 57.84375 76.960938 57.933594 77.234375 C 58.023438 77.414062 58.292969 77.503906 58.5625 77.414062 L 61.078125 75.96875 L 66.203125 72.992188 L 70.335938 70.648438 L 75.371094 67.667969 L 77.886719 66.226562 C 78.066406 66.136719 78.15625 65.863281 78.066406 65.59375 C 77.976562 65.234375 77.707031 65.144531 77.4375 65.324219 Z M 66.113281 71.910156 L 64.675781 69.382812 C 64.585938 69.203125 64.675781 69.023438 64.765625 68.933594 L 67.550781 67.308594 C 67.730469 67.21875 67.910156 67.308594 68 67.398438 L 69.4375 69.925781 Z M 56.765625 67.578125 C 56.675781 67.308594 56.585938 66.949219 56.945312 66.496094 L 60.628906 60.902344 C 61.078125 60.269531 61.976562 59.730469 62.785156 59.640625 L 69.4375 59.277344 C 69.976562 59.277344 70.335938 59.457031 70.425781 59.640625 L 74.652344 66.949219 L 70.246094 69.472656 L 68.808594 66.949219 C 68.449219 66.316406 67.730469 66.136719 67.101562 66.496094 L 64.316406 68.121094 C 63.683594 68.480469 63.503906 69.203125 63.863281 69.835938 L 65.304688 72.359375 L 60.988281 74.886719 Z M 132.179688 109.445312 L 119.414062 99.878906 C 118.042969 98.894531 116.136719 99.171875 115.101562 100.511719 L 113.933594 102.046875 L 108.449219 97.894531 C 106.140625 96.179688 102.882812 96.664062 101.167969 98.976562 L 100.71875 99.609375 L 100.71875 99.699219 L 97.574219 103.941406 L 96.046875 106.015625 C 95.234375 107.097656 95.503906 108.632812 96.496094 109.445312 L 98.023438 110.617188 L 97.394531 111.25 L 97.394531 111.339844 C 96.316406 112.871094 96.585938 114.949219 98.113281 116.03125 C 99.640625 117.203125 101.707031 116.84375 102.875 115.308594 L 103.324219 114.585938 L 110.695312 120.089844 L 112.226562 120.089844 L 103.59375 113.59375 C 103.683594 112.421875 103.234375 111.25 102.246094 110.527344 C 101.28125 109.832031 100.035156 109.664062 98.921875 110.074219 L 97.125 108.722656 C 96.40625 108.179688 96.316406 107.277344 96.855469 106.554688 L 98.113281 104.84375 L 118.335938 120 L 119.863281 120 L 108.359375 111.429688 L 116.089844 101.050781 C 116.429688 100.578125 116.949219 100.265625 117.523438 100.179688 C 118.097656 100.09375 118.683594 100.246094 119.144531 100.601562 L 131.910156 110.164062 C 132.898438 110.886719 133.078125 112.242188 132.359375 113.234375 L 127.324219 120 L 128.40625 120 L 133.078125 113.773438 C 133.886719 112.421875 133.617188 110.527344 132.179688 109.445312 Z M 101.527344 111.15625 C 102.335938 111.789062 102.695312 112.691406 102.515625 113.59375 C 102.425781 113.953125 102.335938 114.316406 102.066406 114.585938 C 101.246094 115.703125 99.679688 115.945312 98.5625 115.128906 C 97.449219 114.304688 97.207031 112.730469 98.023438 111.609375 L 98.832031 110.886719 C 99.730469 110.527344 100.71875 110.617188 101.527344 111.15625 Z M 107.910156 98.707031 L 109.167969 99.699219 L 106.023438 103.308594 L 101.617188 99.96875 L 101.886719 99.609375 C 102.554688 98.667969 103.570312 98.042969 104.707031 97.871094 C 105.84375 97.703125 107 98.003906 107.910156 98.707031 Z M 101.078125 100.601562 L 105.84375 104.210938 C 106.023438 104.390625 106.292969 104.300781 106.472656 104.121094 L 109.886719 100.148438 L 113.394531 102.765625 L 107.371094 110.796875 L 98.382812 104.03125 Z M 4.898438 7.757812 L 5.527344 6.949219 C 6.15625 6.136719 6.066406 5.144531 5.527344 4.332031 L 8.675781 0 L 7.59375 0 L 4.808594 3.699219 L 0.136719 0.179688 L 0.136719 1.351562 L 4.539062 4.601562 C 5.078125 5.050781 5.257812 5.863281 4.808594 6.40625 L 4.179688 7.21875 C 3.730469 7.757812 2.921875 7.941406 2.292969 7.488281 L 0.136719 5.863281 L 0.136719 6.949219 L 1.753906 8.210938 C 2.742188 8.933594 4.089844 8.75 4.898438 7.757812 Z M 12.628906 109.445312 L 0.136719 100.058594 L 0.136719 101.144531 L 12.089844 110.164062 C 13.078125 110.886719 13.257812 112.242188 12.539062 113.234375 L 7.503906 120 L 8.585938 120 L 13.257812 113.773438 C 14.335938 112.421875 14.066406 110.527344 12.628906 109.445312 Z M 46.066406 29.144531 C 45.976562 28.960938 45.886719 28.871094 45.707031 28.871094 L 34.382812 28.242188 L 34.023438 28.421875 L 27.820312 37.894531 L 27.820312 38.347656 L 32.945312 48.449219 C 33.035156 48.632812 33.125 48.722656 33.304688 48.722656 L 44.628906 49.351562 L 44.808594 49.351562 L 44.988281 49.171875 L 51.191406 39.699219 L 51.191406 39.25 Z M 39.324219 38.527344 L 34.652344 38.253906 L 39.953125 29.503906 L 44.988281 29.773438 Z M 34.652344 29.234375 L 38.964844 29.503906 L 33.664062 38.253906 L 28.988281 37.984375 Z M 28.988281 38.886719 L 33.84375 39.15625 L 35.640625 42.765625 C 35.730469 42.949219 36 43.039062 36.269531 42.949219 C 36.449219 42.855469 36.539062 42.585938 36.449219 42.316406 L 34.832031 39.15625 L 39.144531 39.429688 L 43.730469 48.542969 L 33.484375 48 Z M 44.71875 48.089844 L 40.136719 38.976562 L 45.707031 30.316406 L 50.292969 39.429688 Z M 59.910156 102.496094 L 42.652344 115.488281 C 41.214844 116.570312 40.675781 118.375 41.214844 120 L 42.203125 120 C 41.652344 118.65625 42.054688 117.109375 43.191406 116.210938 L 60.449219 103.21875 C 61.121094 102.6875 61.984375 102.453125 62.832031 102.574219 C 63.679688 102.691406 64.441406 103.152344 64.945312 103.851562 L 76.988281 120 L 78.066406 120 L 65.664062 103.308594 C 64.289062 101.503906 61.726562 101.140625 59.910156 102.496094 Z M 59.910156 102.496094 "/>
<path style=" stroke:none;fill-rule:nonzero;fill:rgb(93.333333%,93.333333%,100%);fill-opacity:1;" d="M 51.191406 117.023438 C 49.488281 117.023438 48.09375 118.382812 48.046875 120.089844 L 48.945312 120.089844 C 48.992188 118.878906 49.984375 117.925781 51.191406 117.925781 C 52.359375 117.925781 53.347656 118.828125 53.4375 120.089844 L 54.335938 120.089844 C 54.289062 118.382812 52.894531 117.023438 51.191406 117.023438 Z M 63.953125 109.984375 L 60.179688 112.871094 C 60 113.050781 59.910156 113.324219 60.089844 113.503906 C 60.269531 113.683594 60.539062 113.773438 60.71875 113.59375 L 64.496094 110.707031 C 64.675781 110.527344 64.765625 110.253906 64.585938 110.074219 C 64.417969 109.910156 64.160156 109.875 63.953125 109.984375 Z M 67.101562 116.933594 L 62.964844 120.089844 L 64.496094 120.089844 L 67.730469 117.652344 C 68.089844 117.382812 68.539062 117.472656 68.808594 117.835938 L 70.515625 120.089844 L 71.59375 120.089844 L 69.527344 117.292969 C 68.898438 116.480469 67.820312 116.300781 67.101562 116.933594 Z M 58.023438 21.835938 C 59.371094 23.640625 61.976562 24 63.773438 22.648438 L 81.035156 9.746094 C 82.832031 8.390625 83.191406 5.773438 81.84375 3.96875 L 78.875 0 L 77.796875 0 L 81.125 4.511719 C 82.203125 5.953125 81.933594 7.941406 80.496094 9.023438 L 63.234375 21.925781 C 62.5625 22.457031 61.703125 22.6875 60.855469 22.570312 C 60.007812 22.449219 59.242188 21.988281 58.742188 21.292969 L 42.832031 0 L 41.753906 0 L 41.933594 0.269531 Z M 58.023438 21.835938 "/>
<path style=" stroke:none;fill-rule:nonzero;fill:rgb(93.333333%,93.333333%,100%);fill-opacity:1;" d="M 51.191406 2.253906 C 52.628906 2.253906 53.796875 1.261719 54.15625 0 L 53.257812 0 C 52.898438 0.8125 52.089844 1.351562 51.191406 1.351562 C 50.292969 1.351562 49.484375 0.8125 49.125 0 L 48.226562 0 C 48.5625 1.359375 49.796875 2.296875 51.191406 2.253906 Z M 73.035156 9.382812 L 76.808594 6.496094 C 76.988281 6.316406 77.078125 6.046875 76.898438 5.863281 C 76.71875 5.683594 76.449219 5.59375 76.269531 5.773438 L 72.496094 8.660156 C 72.316406 8.84375 72.226562 9.113281 72.40625 9.292969 C 72.585938 9.472656 72.855469 9.5625 73.035156 9.382812 Z M 54.15625 7.667969 L 58.203125 13.082031 C 58.742188 13.804688 59.820312 13.984375 60.539062 13.445312 L 73.125 3.96875 C 73.84375 3.429688 74.023438 2.347656 73.484375 1.625 L 72.226562 0 L 71.144531 0 L 72.765625 2.253906 C 73.035156 2.617188 72.945312 3.066406 72.585938 3.339844 L 60 12.8125 C 59.640625 13.082031 59.191406 12.992188 58.921875 12.632812 L 54.875 7.21875 C 54.605469 6.855469 54.695312 6.40625 55.054688 6.136719 L 63.144531 0.0898438 L 61.617188 0.0898438 L 54.515625 5.414062 C 53.796875 5.863281 53.617188 6.949219 54.15625 7.667969 Z M 5.527344 60.269531 L 0.855469 49.082031 L 0.136719 48.089844 L 0.136719 49.804688 L 4.71875 60.722656 C 5.167969 61.804688 4.628906 63.066406 3.550781 63.519531 L 0.136719 64.871094 L 0.136719 65.863281 L 3.910156 64.332031 C 5.445312 63.632812 6.160156 61.839844 5.527344 60.269531 Z M 5.527344 60.269531 "/>
<path style=" stroke:none;fill-rule:nonzero;fill:rgb(93.333333%,93.333333%,100%);fill-opacity:1;" d="M 10.921875 67.128906 C 11.695312 66.832031 12.308594 66.222656 12.613281 65.453125 C 12.921875 64.683594 12.894531 63.816406 12.539062 63.066406 L 12.539062 62.976562 C 11.933594 61.632812 10.460938 60.914062 9.035156 61.261719 L 2.652344 45.835938 C 2.113281 44.570312 2.113281 43.128906 2.652344 41.863281 L 4.539062 37.171875 C 4.628906 36.902344 4.539062 36.722656 4.269531 36.542969 C 4 36.449219 3.820312 36.542969 3.640625 36.8125 L 1.753906 41.503906 C 1.128906 42.972656 1.128906 44.636719 1.753906 46.105469 L 8.136719 61.445312 C 6.867188 62.152344 6.292969 63.679688 6.785156 65.050781 L 0.136719 68.03125 L 0.136719 69.023438 L 7.234375 66.046875 C 8.046875 67.128906 9.484375 67.667969 10.921875 67.128906 Z M 8.945312 62.164062 C 10.113281 61.714844 11.371094 62.253906 11.820312 63.339844 L 11.820312 63.429688 C 12.269531 64.511719 11.730469 65.773438 10.652344 66.226562 C 9.574219 66.675781 8.40625 66.226562 7.863281 65.234375 L 7.773438 65.050781 C 7.234375 63.96875 7.773438 62.707031 8.945312 62.164062 Z M 31.953125 87.878906 C 27.835938 87.878906 24.496094 91.234375 24.496094 95.367188 C 24.496094 99.503906 27.835938 102.855469 31.953125 102.855469 C 36.074219 102.855469 39.414062 99.503906 39.414062 95.367188 C 39.414062 91.234375 36.074219 87.878906 31.953125 87.878906 Z M 31.953125 101.953125 C 28.359375 101.953125 25.394531 98.976562 25.394531 95.367188 C 25.394531 91.757812 28.359375 88.78125 31.953125 88.78125 C 35.550781 88.78125 38.515625 91.757812 38.515625 95.367188 C 38.515625 98.976562 35.550781 101.953125 31.953125 101.953125 Z M 31.953125 101.953125 "/>
<path style=" stroke:none;fill-rule:nonzero;fill:rgb(93.333333%,93.333333%,100%);fill-opacity:1;" d="M 34.023438 92.660156 L 31.234375 96.8125 L 29.976562 95.1875 C 29.796875 95.007812 29.527344 94.917969 29.347656 95.097656 C 29.167969 95.277344 29.078125 95.550781 29.257812 95.730469 L 30.875 97.894531 L 31.234375 98.074219 L 31.59375 97.894531 L 34.742188 93.203125 C 34.921875 93.023438 34.832031 92.75 34.652344 92.570312 C 34.472656 92.390625 34.203125 92.480469 34.023438 92.660156 Z M 196.179688 34.195312 C 196.714844 33.664062 197.445312 33.382812 198.195312 33.417969 C 198.949219 33.453125 199.648438 33.800781 200.136719 34.375 C 200.664062 34.914062 200.945312 35.648438 200.910156 36.398438 C 200.875 37.152344 200.53125 37.859375 199.953125 38.347656 C 199.773438 38.527344 199.773438 38.796875 199.953125 38.976562 C 200.136719 39.15625 200.40625 39.15625 200.585938 38.976562 C 202.097656 37.605469 202.21875 35.265625 200.855469 33.746094 C 199.488281 32.222656 197.15625 32.101562 195.640625 33.472656 C 195.460938 33.652344 195.460938 33.925781 195.640625 34.105469 C 195.730469 34.285156 196 34.375 196.179688 34.195312 Z M 214.425781 52.148438 C 214.425781 50.886719 213.4375 49.894531 212.179688 49.894531 C 210.9375 49.894531 209.933594 50.90625 209.933594 52.148438 C 209.933594 53.414062 210.921875 54.40625 212.179688 54.40625 C 213.4375 54.496094 214.425781 53.503906 214.425781 52.148438 Z M 210.742188 52.148438 C 210.742188 51.339844 211.371094 50.796875 212.089844 50.796875 C 212.898438 50.796875 213.4375 51.429688 213.4375 52.148438 C 213.4375 52.960938 212.808594 53.503906 212.089844 53.503906 C 211.371094 53.59375 210.742188 52.960938 210.742188 52.148438 Z M 140.988281 17.234375 C 139.730469 17.234375 138.742188 18.226562 138.742188 19.488281 C 138.742188 20.75 139.730469 21.746094 140.988281 21.746094 C 142.246094 21.746094 143.234375 20.75 143.234375 19.488281 C 143.234375 18.226562 142.335938 17.234375 140.988281 17.234375 Z M 140.988281 20.933594 C 140.179688 20.933594 139.640625 20.300781 139.640625 19.578125 C 139.640625 18.765625 140.269531 18.226562 140.988281 18.226562 C 141.707031 18.226562 142.335938 18.855469 142.335938 19.578125 C 142.425781 20.300781 141.796875 20.933594 140.988281 20.933594 Z M 154.023438 72.542969 C 154.023438 71.730469 154.652344 71.1875 155.371094 71.1875 C 156.179688 71.1875 156.71875 71.820312 156.71875 72.542969 C 156.71875 72.8125 156.898438 72.992188 157.167969 72.992188 C 157.4375 72.992188 157.617188 72.8125 157.617188 72.542969 C 157.617188 71.277344 156.628906 70.285156 155.371094 70.285156 C 154.128906 70.285156 153.125 71.296875 153.125 72.542969 C 153.125 72.8125 153.304688 72.992188 153.574219 72.992188 C 153.84375 72.992188 154.023438 72.8125 154.023438 72.542969 Z M 215.953125 85.625 C 215.953125 84.359375 214.964844 83.367188 213.707031 83.367188 C 212.464844 83.367188 211.460938 84.378906 211.460938 85.625 C 211.460938 86.886719 212.449219 87.878906 213.707031 87.878906 C 214.875 87.878906 215.953125 86.886719 215.953125 85.625 Z M 213.617188 86.976562 C 212.808594 86.976562 212.269531 86.347656 212.269531 85.625 C 212.269531 84.8125 212.898438 84.269531 213.617188 84.269531 C 214.425781 84.269531 214.964844 84.902344 214.964844 85.625 C 215.054688 86.347656 214.425781 86.976562 213.617188 86.976562 Z M 130.292969 79.757812 C 128.804688 79.757812 127.59375 80.972656 127.59375 82.464844 C 127.59375 83.960938 128.804688 85.171875 130.292969 85.171875 C 131.78125 85.171875 132.988281 83.960938 132.988281 82.464844 C 132.988281 80.972656 131.78125 79.757812 130.292969 79.757812 Z M 130.292969 84.179688 C 129.300781 84.179688 128.496094 83.371094 128.496094 82.375 C 128.496094 81.382812 129.304688 80.570312 130.292969 80.570312 C 131.285156 80.570312 132.089844 81.378906 132.089844 82.375 C 132.089844 83.371094 131.285156 84.179688 130.292969 84.179688 Z M 222.695312 26.347656 C 224.1875 26.347656 225.394531 25.132812 225.394531 23.640625 C 225.394531 22.144531 224.1875 20.933594 222.695312 20.933594 C 221.207031 20.933594 220 22.144531 220 23.640625 C 220 25.132812 221.207031 26.347656 222.695312 26.347656 Z M 222.695312 21.925781 C 223.691406 21.925781 224.496094 22.734375 224.496094 23.730469 C 224.496094 24.726562 223.691406 25.535156 222.695312 25.535156 C 221.703125 25.535156 220.898438 24.726562 220.898438 23.730469 C 220.898438 22.738281 221.707031 21.925781 222.695312 21.925781 Z M 174.964844 50.347656 L 172.539062 49.894531 L 173.976562 41.59375 C 174.066406 40.871094 173.707031 40.242188 173.078125 39.789062 L 167.773438 35.820312 C 166.875 35.1875 165.617188 34.917969 164.539062 35.277344 L 158.15625 37.171875 C 157.4375 37.351562 156.808594 37.894531 156.71875 38.617188 L 155.28125 46.917969 L 152.855469 46.464844 C 152.585938 46.464844 152.40625 46.554688 152.316406 46.828125 C 152.316406 47.097656 152.40625 47.277344 152.675781 47.367188 L 174.695312 51.339844 C 174.964844 51.339844 175.144531 51.25 175.234375 50.976562 C 175.414062 50.617188 175.234375 50.4375 174.964844 50.347656 Z M 157.707031 38.707031 C 157.796875 38.4375 157.976562 38.164062 158.515625 37.984375 L 164.898438 36.089844 C 165.707031 35.820312 166.695312 36 167.324219 36.542969 L 172.628906 40.511719 C 173.078125 40.871094 173.167969 41.234375 173.167969 41.503906 L 171.730469 49.804688 L 166.785156 48.902344 L 167.324219 46.015625 C 167.414062 45.382812 166.964844 44.660156 166.335938 44.570312 L 163.191406 44.03125 C 162.5625 43.941406 161.84375 44.390625 161.753906 45.023438 L 161.214844 47.910156 L 156.269531 47.007812 Z M 162.113281 48 L 162.652344 45.113281 C 162.652344 44.933594 162.832031 44.84375 163.011719 44.84375 L 166.15625 45.382812 C 166.335938 45.382812 166.425781 45.5625 166.425781 45.746094 L 165.886719 48.632812 Z M 239.863281 0.632812 L 239.054688 0 L 237.527344 0 L 239.863281 1.714844 Z M 232.675781 5.683594 C 232.675781 7.578125 234.203125 9.113281 236.089844 9.113281 C 237.527344 9.113281 238.695312 8.210938 239.234375 6.949219 L 239.863281 7.398438 L 239.863281 6.316406 L 239.414062 6.046875 L 239.414062 5.683594 C 239.414062 3.789062 237.886719 2.253906 236 2.253906 C 235.550781 2.253906 235.101562 2.347656 234.742188 2.527344 L 231.414062 0 L 229.886719 0 L 233.84375 2.976562 C 233.085938 3.671875 232.660156 4.65625 232.675781 5.683594 Z M 238.515625 5.683594 C 238.515625 7.039062 237.4375 8.210938 236 8.210938 C 234.5625 8.210938 233.484375 7.128906 233.484375 5.683594 C 233.484375 4.332031 234.5625 3.15625 236 3.15625 C 237.4375 3.15625 238.515625 4.242188 238.515625 5.683594 Z M 234.652344 100.511719 L 233.484375 102.046875 L 228 97.894531 C 225.691406 96.179688 222.433594 96.664062 220.71875 98.976562 L 220.269531 99.609375 L 217.125 103.851562 L 215.59375 105.925781 C 214.785156 107.007812 215.054688 108.542969 216.046875 109.351562 L 217.574219 110.527344 L 216.945312 111.15625 L 216.945312 111.25 C 215.863281 112.78125 216.136719 114.855469 217.664062 115.941406 C 219.191406 117.113281 221.257812 116.75 222.425781 115.21875 L 222.875 114.496094 L 230.246094 120 L 231.773438 120 L 223.144531 113.503906 C 223.234375 112.332031 222.785156 111.15625 221.796875 110.4375 C 220.832031 109.742188 219.585938 109.574219 218.472656 109.984375 L 216.675781 108.632812 C 215.953125 108.089844 215.863281 107.1875 216.40625 106.464844 L 217.664062 104.75 L 237.886719 119.910156 L 239.414062 119.910156 L 227.910156 111.339844 L 234.203125 102.949219 L 235.640625 101.050781 C 235.980469 100.578125 236.5 100.265625 237.074219 100.179688 C 237.648438 100.09375 238.234375 100.246094 238.695312 100.601562 L 240.046875 101.59375 L 240.046875 100.511719 L 239.234375 99.878906 C 237.617188 98.886719 235.730469 99.15625 234.652344 100.511719 Z M 221.078125 111.15625 C 221.886719 111.789062 222.246094 112.691406 222.066406 113.59375 C 221.976562 113.953125 221.886719 114.316406 221.617188 114.585938 C 220.796875 115.703125 219.230469 115.945312 218.113281 115.128906 C 217 114.304688 216.757812 112.730469 217.574219 111.609375 L 218.382812 110.886719 C 219.191406 110.527344 220.269531 110.617188 221.078125 111.15625 Z M 227.460938 98.707031 L 228.71875 99.699219 L 225.574219 103.308594 L 221.167969 99.96875 L 221.4375 99.609375 C 222.105469 98.667969 223.121094 98.042969 224.257812 97.871094 C 225.394531 97.703125 226.550781 98.003906 227.460938 98.707031 Z M 220.628906 100.601562 L 225.394531 104.210938 C 225.574219 104.390625 225.84375 104.300781 226.023438 104.121094 L 229.4375 100.148438 L 232.945312 102.765625 L 226.921875 110.796875 L 217.933594 104.03125 Z M 199.414062 61.261719 C 199.324219 61.082031 199.234375 60.992188 199.054688 60.992188 L 185.574219 60.269531 L 185.214844 60.449219 L 177.84375 71.820312 L 177.84375 72.269531 L 183.953125 84.359375 C 184.046875 84.542969 184.136719 84.632812 184.316406 84.632812 L 197.796875 85.351562 L 197.976562 85.351562 L 198.15625 85.171875 L 205.527344 73.804688 L 205.527344 73.351562 Z M 191.503906 72.449219 L 185.753906 72.179688 L 192.136719 61.535156 L 198.335938 61.894531 Z M 185.84375 61.171875 L 191.144531 61.445312 L 184.765625 72 L 184.765625 72.089844 L 178.921875 71.820312 Z M 179.011719 72.722656 L 185.035156 73.082031 L 187.191406 77.414062 C 187.28125 77.59375 187.550781 77.683594 187.820312 77.59375 C 188 77.503906 188.089844 77.234375 188 76.960938 L 186.023438 73.082031 L 191.414062 73.351562 L 196.988281 84.359375 L 184.496094 83.730469 Z M 197.886719 84 L 192.316406 72.992188 L 199.144531 62.527344 L 204.71875 73.535156 Z M 179.550781 102.496094 L 162.292969 115.488281 C 160.855469 116.570312 160.316406 118.375 160.855469 120 L 161.84375 120 C 161.289062 118.65625 161.695312 117.109375 162.832031 116.210938 L 180.089844 103.21875 C 180.761719 102.6875 181.621094 102.453125 182.472656 102.574219 C 183.320312 102.691406 184.082031 103.152344 184.585938 103.851562 L 196.628906 120 L 197.707031 120 L 185.304688 103.308594 C 183.929688 101.503906 181.367188 101.140625 179.550781 102.496094 Z M 179.550781 102.496094 "/>
<path style=" stroke:none;fill-rule:nonzero;fill:rgb(93.333333%,93.333333%,100%);fill-opacity:1;" d="M 170.742188 117.023438 C 169.039062 117.023438 167.644531 118.382812 167.59375 120.089844 L 168.496094 120.089844 C 168.542969 118.878906 169.535156 117.925781 170.742188 117.925781 C 171.910156 117.925781 172.898438 118.828125 172.988281 120.089844 L 173.886719 120.089844 C 173.839844 118.382812 172.445312 117.023438 170.742188 117.023438 Z M 183.503906 109.984375 L 179.730469 112.871094 C 179.550781 113.050781 179.460938 113.324219 179.640625 113.503906 C 179.820312 113.683594 180.089844 113.773438 180.269531 113.59375 L 184.046875 110.707031 C 184.226562 110.527344 184.316406 110.253906 184.136719 110.074219 C 183.96875 109.910156 183.710938 109.875 183.503906 109.984375 Z M 186.652344 116.933594 L 182.515625 120.089844 L 184.046875 120.089844 L 187.28125 117.652344 C 187.640625 117.382812 188.089844 117.472656 188.359375 117.835938 L 190.066406 120.089844 L 191.144531 120.089844 L 189.078125 117.292969 C 188.488281 116.550781 187.429688 116.394531 186.652344 116.933594 Z M 177.574219 21.835938 C 178.921875 23.640625 181.527344 24 183.324219 22.648438 L 200.585938 9.746094 C 202.382812 8.390625 202.742188 5.773438 201.394531 3.96875 L 198.425781 0 L 197.347656 0 L 200.675781 4.511719 C 201.753906 5.953125 201.484375 7.941406 200.046875 9.023438 L 182.785156 22.015625 C 182.113281 22.546875 181.253906 22.78125 180.40625 22.660156 C 179.558594 22.542969 178.792969 22.078125 178.292969 21.382812 L 162.382812 0 L 161.304688 0 L 161.484375 0.269531 Z M 177.574219 21.835938 "/>
<path style=" stroke:none;fill-rule:nonzero;fill:rgb(93.333333%,93.333333%,100%);fill-opacity:1;" d="M 170.742188 2.253906 C 172.179688 2.253906 173.347656 1.261719 173.707031 0 L 172.808594 0 C 172.449219 0.8125 171.640625 1.351562 170.742188 1.351562 C 169.84375 1.351562 169.035156 0.8125 168.675781 0 L 167.773438 0 C 168.113281 1.359375 169.347656 2.296875 170.742188 2.253906 Z M 192.585938 9.382812 L 196.359375 6.496094 C 196.539062 6.316406 196.628906 6.046875 196.449219 5.863281 C 196.269531 5.683594 196 5.59375 195.820312 5.773438 L 192.046875 8.660156 C 191.863281 8.84375 191.773438 9.113281 191.953125 9.292969 C 192.136719 9.472656 192.40625 9.5625 192.585938 9.382812 Z M 173.707031 7.667969 L 177.753906 13.082031 C 178.292969 13.804688 179.371094 13.984375 180.089844 13.445312 L 192.675781 3.96875 C 193.394531 3.429688 193.574219 2.347656 193.035156 1.625 L 191.773438 0 L 190.695312 0 L 192.40625 2.253906 C 192.675781 2.617188 192.585938 3.066406 192.226562 3.339844 L 179.640625 12.8125 C 179.28125 13.082031 178.832031 12.992188 178.5625 12.632812 L 174.515625 7.21875 C 174.246094 6.855469 174.335938 6.40625 174.695312 6.136719 L 182.785156 0.0898438 L 181.257812 0.0898438 L 174.15625 5.414062 C 173.347656 5.863281 173.167969 6.949219 173.707031 7.667969 Z M 235.910156 47.367188 L 224.765625 52.058594 C 223.238281 52.722656 222.519531 54.484375 223.144531 56.03125 L 227.820312 67.21875 C 228.480469 68.75 230.234375 69.46875 231.773438 68.84375 L 239.773438 65.503906 L 239.773438 64.511719 L 231.414062 68.03125 C 230.335938 68.480469 229.078125 67.941406 228.628906 66.855469 L 223.953125 55.757812 C 223.503906 54.675781 224.046875 53.414062 225.125 52.960938 L 236.269531 48.269531 C 237.347656 47.820312 238.605469 48.359375 239.054688 49.445312 L 239.773438 51.15625 L 239.773438 48.902344 C 239.144531 47.457031 237.4375 46.828125 235.910156 47.367188 Z M 228.449219 72.992188 C 228.539062 73.261719 228.808594 73.351562 229.078125 73.261719 L 239.863281 68.75 L 239.863281 67.757812 L 228.808594 72.449219 C 228.539062 72.542969 228.359375 72.722656 228.449219 72.992188 Z M 228.449219 72.992188 "/>
<path style=" stroke:none;fill-rule:nonzero;fill:rgb(93.333333%,93.333333%,100%);fill-opacity:1;" d="M 233.933594 51.699219 L 229.167969 53.683594 C 228.898438 53.773438 228.808594 54.046875 228.898438 54.316406 C 228.988281 54.585938 229.257812 54.675781 229.527344 54.585938 L 234.292969 52.601562 C 234.5625 52.511719 234.652344 52.242188 234.5625 51.96875 C 234.472656 51.699219 234.203125 51.519531 233.933594 51.699219 Z M 112.226562 68.933594 L 123.371094 64.242188 C 124.894531 63.578125 125.613281 61.816406 124.988281 60.269531 L 120.316406 49.082031 C 119.65625 47.550781 117.898438 46.832031 116.359375 47.457031 L 105.214844 52.148438 C 103.6875 52.8125 102.96875 54.574219 103.59375 56.121094 L 108.269531 67.308594 C 108.546875 68.078125 109.132812 68.695312 109.886719 69.003906 C 110.640625 69.3125 111.492188 69.289062 112.226562 68.933594 Z M 104.40625 55.757812 C 103.953125 54.675781 104.496094 53.414062 105.574219 52.960938 L 116.71875 48.269531 C 117.796875 47.820312 119.054688 48.359375 119.503906 49.445312 L 124.179688 60.632812 C 124.628906 61.714844 124.089844 62.976562 123.011719 63.429688 L 111.863281 68.121094 C 110.785156 68.570312 109.527344 68.03125 109.078125 66.949219 Z M 104.40625 55.757812 "/>
<path style=" stroke:none;fill-rule:nonzero;fill:rgb(93.333333%,93.333333%,100%);fill-opacity:1;" d="M 130.472656 67.128906 C 131.246094 66.832031 131.859375 66.222656 132.164062 65.453125 C 132.472656 64.683594 132.445312 63.816406 132.089844 63.066406 L 132.089844 62.976562 C 131.484375 61.632812 130.011719 60.914062 128.585938 61.261719 L 122.203125 45.835938 C 121.664062 44.570312 121.664062 43.128906 122.203125 41.863281 L 124.089844 37.171875 C 124.179688 36.902344 124.089844 36.722656 123.820312 36.542969 C 123.550781 36.449219 123.371094 36.542969 123.191406 36.8125 L 121.304688 41.503906 C 120.679688 42.972656 120.679688 44.636719 121.304688 46.105469 L 127.683594 61.445312 C 126.417969 62.152344 125.84375 63.679688 126.335938 65.050781 L 109.167969 72.269531 C 108.898438 72.359375 108.808594 72.632812 108.898438 72.902344 C 108.988281 73.171875 109.257812 73.261719 109.527344 73.171875 L 126.785156 65.953125 C 127.582031 67.175781 129.121094 67.664062 130.472656 67.128906 Z M 128.496094 62.164062 C 129.664062 61.714844 130.921875 62.253906 131.371094 63.339844 L 131.371094 63.429688 C 131.820312 64.511719 131.28125 65.773438 130.203125 66.226562 C 129.125 66.675781 127.953125 66.226562 127.414062 65.234375 L 127.324219 65.050781 C 126.785156 63.96875 127.324219 62.707031 128.496094 62.164062 Z M 109.976562 54.496094 L 114.742188 52.511719 C 115.011719 52.421875 115.101562 52.148438 115.011719 51.878906 C 114.921875 51.609375 114.652344 51.519531 114.382812 51.609375 L 109.617188 53.59375 C 109.347656 53.683594 109.257812 53.953125 109.347656 54.226562 C 109.527344 54.496094 109.707031 54.585938 109.976562 54.496094 Z M 151.414062 87.878906 C 147.296875 87.878906 143.953125 91.234375 143.953125 95.367188 C 143.953125 99.503906 147.296875 102.855469 151.414062 102.855469 C 155.550781 102.855469 158.875 99.519531 158.875 95.367188 C 158.902344 93.375 158.121094 91.457031 156.71875 90.046875 C 155.3125 88.636719 153.402344 87.855469 151.414062 87.878906 Z M 151.414062 101.953125 C 147.820312 101.953125 144.855469 98.976562 144.855469 95.367188 C 144.855469 91.757812 147.820312 88.78125 151.414062 88.78125 C 155.011719 88.78125 157.976562 91.757812 157.976562 95.367188 C 158.066406 98.976562 155.101562 101.953125 151.414062 101.953125 Z M 151.414062 101.953125 "/>
<path style=" stroke:none;fill-rule:nonzero;fill:rgb(93.333333%,93.333333%,100%);fill-opacity:1;" d="M 153.574219 92.660156 L 150.785156 96.8125 L 149.617188 95.1875 C 149.4375 95.007812 149.167969 94.917969 148.988281 95.097656 C 148.808594 95.277344 148.71875 95.550781 148.898438 95.730469 L 150.515625 97.894531 L 150.875 98.074219 L 151.234375 97.894531 L 154.382812 93.203125 C 154.5625 93.023438 154.472656 92.75 154.292969 92.570312 C 154.023438 92.390625 153.753906 92.480469 153.574219 92.660156 Z M 113.125 5.683594 C 113.125 7.578125 114.652344 9.113281 116.539062 9.113281 C 117.976562 9.113281 119.144531 8.210938 119.683594 6.949219 L 121.394531 8.210938 C 122.382812 8.933594 123.730469 8.75 124.449219 7.757812 L 125.078125 6.949219 C 125.707031 6.136719 125.617188 5.144531 125.078125 4.332031 L 128.316406 0 L 127.234375 0 L 124.449219 3.699219 L 119.503906 0 L 117.976562 0 L 124.089844 4.511719 C 124.628906 4.960938 124.808594 5.773438 124.359375 6.316406 L 123.640625 7.21875 C 123.191406 7.757812 122.382812 7.941406 121.84375 7.488281 L 119.863281 5.953125 L 119.863281 5.59375 C 119.863281 3.699219 118.335938 2.164062 116.449219 2.164062 C 116 2.164062 115.550781 2.253906 115.191406 2.4375 L 111.863281 0 L 110.335938 0 L 114.292969 2.976562 C 113.535156 3.671875 113.109375 4.65625 113.125 5.683594 Z M 118.964844 5.683594 C 118.964844 7.039062 117.886719 8.210938 116.449219 8.210938 C 115.011719 8.210938 113.933594 7.128906 113.933594 5.683594 C 113.933594 4.332031 115.011719 3.15625 116.449219 3.15625 C 117.886719 3.15625 118.964844 4.242188 118.964844 5.683594 Z M 118.964844 5.683594 "/>
</g>
</svg>
